<svg xmlns="http://www.w3.org/2000/svg" width="32" height="32" viewBox="0 0 24 24"><!-- Icon from All by undefined - undefined --><mask id="lineMdChatRoundDotsFilled0"><path fill="#fff" fill-opacity="0" d="M5 15.5c1 1 2.5 2 4 2.5c-0.71 -0.24 -1.43 -0.59 -2.09 -1c-0.72 -0.45 -1.39 -0.98 -1.91 -1.5Z"><animate fill="freeze" attributeName="d" begin="0.6s" dur="0.2s" values="M5 15.5c1 1 2.5 2 4 2.5c-0.71 -0.24 -1.43 -0.59 -2.09 -1c-0.72 -0.45 -1.39 -0.98 -1.91 -1.5Z;M5 15.5c1 1 2.5 2 4 2.5c-2 2 -5 3 -7 3c2 -2 3 -3.5 3 -5.5Z"/><set fill="freeze" attributeName="fill-opacity" begin="0.6s" to="1"/></path><g fill="none" stroke="#fff" stroke-linecap="round" stroke-linejoin="round" stroke-width="2"><path fill="#fff" fill-opacity="0" stroke-dasharray="56" stroke-dashoffset="56" d="M7 16.82c-2.41 -1.25 -4 -3.39 -4 -5.82c0 -3.87 4.03 -7 9 -7c4.97 0 9 3.13 9 7c0 3.87 -4.03 7 -9 7c-1.85 0 -3.57 -0.43 -5 -1.18Z"><animate fill="freeze" attributeName="fill-opacity" begin="0.9s" dur="0.5s" values="0;1"/><animate fill="freeze" attributeName="stroke-dashoffset" dur="0.6s" values="56;0"/></path><path stroke="#000" stroke-dasharray="2" stroke-dashoffset="2" d="M8 11h0.01"><animate fill="freeze" attributeName="stroke-dashoffset" begin="1.4s" dur="0.2s" values="2;0"/></path><path stroke="#000" stroke-dasharray="2" stroke-dashoffset="2" d="M12 11h0.01"><animate fill="freeze" attributeName="stroke-dashoffset" begin="1.7s" dur="0.2s" values="2;0"/></path><path stroke="#000" stroke-dasharray="2" stroke-dashoffset="2" d="M16 11h0.01"><animate fill="freeze" attributeName="stroke-dashoffset" begin="2s" dur="0.2s" values="2;0"/></path></g></mask><rect width="24" height="24" fill="currentColor" mask="url(#lineMdChatRoundDotsFilled0)"/></svg>